<svg width="1487" height="1374" viewBox="0 0 1487 1374" fill="none" xmlns="http://www.w3.org/2000/svg">
<path d="M694.5 180.5H703.5V572.5H694.5V180.5Z" fill="white" stroke="black"/>
<path d="M694.5 180.5H703.5V189.5H694.5V180.5Z" fill="white" stroke="black"/>
<path d="M694.5 372.5H703.5V381.5H694.5V372.5Z" fill="white" stroke="black"/>
<path d="M694.5 563.5H703.5V572.5H694.5V563.5Z" fill="white" stroke="black"/>
<rect x="659" y="100" width="80" height="80" fill="black"/>
<rect x="1235" y="100" width="80" height="80" fill="black"/>
<path d="M694.5 30.5H703.5V99.5H694.5V30.5Z" fill="white" stroke="black"/>
<path d="M694.5 30.5H703.5V39.5H694.5V30.5Z" fill="white" stroke="black"/>
<path d="M694.5 90.5H703.5V99.5H694.5V90.5Z" fill="white" stroke="black"/>
<rect x="658" y="573" width="82" height="82" fill="black"/>
<path d="M740.5 645.5H1234.5V654.5H740.5V645.5Z" fill="white" stroke="black"/>
<path d="M740.5 645.5H749.5V654.5H740.5V645.5Z" fill="white" stroke="black"/>
<path d="M983.5 645.5H992.5V654.5H983.5V645.5Z" fill="white" stroke="black"/>
<path d="M1225.5 645.5H1234.5V654.5H1225.5V645.5Z" fill="white" stroke="black"/>
<path fill-rule="evenodd" clip-rule="evenodd" d="M1457 0H30H0V30V655H30V30H1457V625H1235V655H1377V1344H0V1374H1377H1407V1344V655H1457H1487V625V30V0H1457Z" fill="black"/>
<path d="M818.5 0.5H1017.5V29.5H818.5V0.5Z" fill="white" stroke="black"/>
<path d="M818.5 8.5H1017.5V21.5H818.5V8.5Z" fill="white" stroke="black"/>
<path d="M818.5 8.5H831.5V21.5H818.5V8.5Z" fill="white" stroke="black"/>
<path d="M911.5 8.5H924.5V21.5H911.5V8.5Z" fill="white" stroke="black"/>
<path d="M1004.5 8.5H1017.5V21.5H1004.5V8.5Z" fill="white" stroke="black"/>
<path d="M818.5 1344.5H1017.5V1373.5H818.5V1344.5Z" fill="white" stroke="black"/>
<path d="M818.5 1352.5H1017.5V1365.5H818.5V1352.5Z" fill="white" stroke="black"/>
<path d="M818.5 1352.5H831.5V1365.5H818.5V1352.5Z" fill="white" stroke="black"/>
<path d="M911.5 1352.5H924.5V1365.5H911.5V1352.5Z" fill="white" stroke="black"/>
<path d="M1004.5 1352.5H1017.5V1365.5H1004.5V1352.5Z" fill="white" stroke="black"/>
<path d="M163.5 0.5H362.5V29.5H163.5V0.5Z" fill="white" stroke="black"/>
<path d="M163.5 8.5H362.5V21.5H163.5V8.5Z" fill="white" stroke="black"/>
<path d="M163.5 8.5H176.5V21.5H163.5V8.5Z" fill="white" stroke="black"/>
<path d="M256.5 8.5H269.5V21.5H256.5V8.5Z" fill="white" stroke="black"/>
<path d="M349.5 8.5H362.5V21.5H349.5V8.5Z" fill="white" stroke="black"/>
<path d="M163.5 1344.5H362.5V1373.5H163.5V1344.5Z" fill="white" stroke="black"/>
<path d="M163.5 1352.5H362.5V1365.5H163.5V1352.5Z" fill="white" stroke="black"/>
<path d="M163.5 1352.5H176.5V1365.5H163.5V1352.5Z" fill="white" stroke="black"/>
<path d="M256.5 1352.5H269.5V1365.5H256.5V1352.5Z" fill="white" stroke="black"/>
<path d="M349.5 1352.5H362.5V1365.5H349.5V1352.5Z" fill="white" stroke="black"/>
<path d="M1035.5 0.5H1234.5V29.5H1035.5V0.5Z" fill="white" stroke="black"/>
<path d="M1035.5 8.5H1234.5V21.5H1035.5V8.5Z" fill="white" stroke="black"/>
<path d="M1035.5 8.5H1048.5V21.5H1035.5V8.5Z" fill="white" stroke="black"/>
<path d="M1128.5 8.5H1141.5V21.5H1128.5V8.5Z" fill="white" stroke="black"/>
<path d="M1221.5 8.5H1234.5V21.5H1221.5V8.5Z" fill="white" stroke="black"/>
<path d="M1486.5 151.5L1486.5 350.5L1457.5 350.5L1457.5 151.5L1486.5 151.5Z" fill="white" stroke="black"/>
<path d="M1478.5 151.5L1478.5 350.5L1465.5 350.5L1465.5 151.5L1478.5 151.5Z" fill="white" stroke="black"/>
<path d="M1478.5 151.5L1478.5 164.5L1465.5 164.5L1465.5 151.5L1478.5 151.5Z" fill="white" stroke="black"/>
<path d="M1478.5 244.5L1478.5 257.5L1465.5 257.5L1465.5 244.5L1478.5 244.5Z" fill="white" stroke="black"/>
<path d="M1478.5 337.5L1478.5 350.5L1465.5 350.5L1465.5 337.5L1478.5 337.5Z" fill="white" stroke="black"/>
<path d="M1406.5 830.5L1406.5 1029.5L1377.5 1029.5L1377.5 830.5L1406.5 830.5Z" fill="white" stroke="black"/>
<path d="M1398.5 830.5L1398.5 1029.5L1385.5 1029.5L1385.5 830.5L1398.5 830.5Z" fill="white" stroke="black"/>
<path d="M1398.5 830.5L1398.5 843.5L1385.5 843.5L1385.5 830.5L1398.5 830.5Z" fill="white" stroke="black"/>
<path d="M1398.5 923.5L1398.5 936.5L1385.5 936.5L1385.5 923.5L1398.5 923.5Z" fill="white" stroke="black"/>
<path d="M1398.5 1016.5L1398.5 1029.5L1385.5 1029.5L1385.5 1016.5L1398.5 1016.5Z" fill="white" stroke="black"/>
<path d="M1406.5 1050.5L1406.5 1249.5L1377.5 1249.5L1377.5 1050.5L1406.5 1050.5Z" fill="white" stroke="black"/>
<path d="M1398.5 1050.5L1398.5 1249.5L1385.5 1249.5L1385.5 1050.5L1398.5 1050.5Z" fill="white" stroke="black"/>
<path d="M1398.5 1050.5L1398.5 1063.5L1385.5 1063.5L1385.5 1050.5L1398.5 1050.5Z" fill="white" stroke="black"/>
<path d="M1398.5 1143.5L1398.5 1156.5L1385.5 1156.5L1385.5 1143.5L1398.5 1143.5Z" fill="white" stroke="black"/>
<path d="M1398.5 1236.5L1398.5 1249.5L1385.5 1249.5L1385.5 1236.5L1398.5 1236.5Z" fill="white" stroke="black"/>
<path d="M380.5 0.5H579.5V29.5H380.5V0.5Z" fill="white" stroke="black"/>
<path d="M380.5 8.5H579.5V21.5H380.5V8.5Z" fill="white" stroke="black"/>
<path d="M380.5 8.5H393.5V21.5H380.5V8.5Z" fill="white" stroke="black"/>
<path d="M473.5 8.5H486.5V21.5H473.5V8.5Z" fill="white" stroke="black"/>
<path d="M566.5 8.5H579.5V21.5H566.5V8.5Z" fill="white" stroke="black"/>
<path d="M380.5 1344.5H579.5V1373.5H380.5V1344.5Z" fill="white" stroke="black"/>
<path d="M380.5 1352.5H579.5V1365.5H380.5V1352.5Z" fill="white" stroke="black"/>
<path d="M380.5 1352.5H393.5V1365.5H380.5V1352.5Z" fill="white" stroke="black"/>
<path d="M473.5 1352.5H486.5V1365.5H473.5V1352.5Z" fill="white" stroke="black"/>
<path d="M566.5 1352.5H579.5V1365.5H566.5V1352.5Z" fill="white" stroke="black"/>
<path d="M15 656.5V1372.5" stroke="black" stroke-width="10" stroke-linejoin="round" stroke-dasharray="30 30"/>
</svg>
